<svg xmlns="http://www.w3.org/2000/svg" width="492.029" height="433.542" viewBox="0 0 492.029 433.542"><g transform="translate(3282.46 201.64)"><path d="M139.925,81.685a26.049,26.049,0,0,0,20.555-9.433l-6.355-7.05a17.724,17.724,0,0,1-13.7,6.256c-10.824,0-17.675-8.937-17.675-23.534,0-14.5,7.547-23.236,17.874-23.236a16.856,16.856,0,0,1,12.313,5.164l6.256-7.249a25.411,25.411,0,0,0-18.768-8.242c-16.484,0-29.79,12.611-29.79,33.861C110.631,69.769,123.64,81.685,139.925,81.685ZM171.3,80.494H183.12V55.271h9.632l13.9,25.222h13.207L204.47,53.484c7.745-2.681,12.81-8.738,12.81-18.569,0-14.6-10.426-19.363-24.031-19.363H171.3ZM183.12,45.838V24.985h8.937c8.838,0,13.6,2.582,13.6,9.93,0,7.249-4.766,10.923-13.6,10.923Zm47.167,34.656H270.5v-9.93H242.1V51.7H265.34v-9.93H242.1V25.482h27.407v-9.93H230.287Zm66.928-34.358c2.085-6.852,3.972-14.2,5.66-21.349h.4c1.887,7.05,3.773,14.5,5.859,21.349l2.185,7.745H295.031ZM275.369,80.494h12.015l4.965-17.377H313.9l4.965,17.377h12.512L310.323,15.552h-13.9Zm70.6,0h11.817V25.482h18.668v-9.93H327.3v9.93h18.668Zm41.309,0H427.5v-9.93H399.1V51.7h23.236v-9.93H399.1V25.482H426.5v-9.93H387.28Zm52.43,18.271C449.739,95.289,455.4,87.742,455.4,77.912c0-7.547-3.078-12.015-8.639-12.015-4.27,0-7.745,2.78-7.745,7.15,0,4.667,3.475,7.15,7.447,7.15h.894c.1,5.064-3.575,9.533-10.129,12.115ZM67.833,188.432A26.049,26.049,0,0,0,88.388,179l-6.355-7.05a17.724,17.724,0,0,1-13.7,6.256c-10.824,0-17.675-8.937-17.675-23.534,0-14.5,7.547-23.236,17.874-23.236A16.856,16.856,0,0,1,80.842,136.6l6.256-7.249a25.411,25.411,0,0,0-18.768-8.242c-16.484,0-29.79,12.611-29.79,33.861C38.54,176.516,51.548,188.432,67.833,188.432Zm53.423,0c16.98,0,28.7-12.909,28.7-33.96,0-20.952-11.717-33.365-28.7-33.365s-28.7,12.412-28.7,33.365C92.559,175.523,104.276,188.432,121.257,188.432Zm0-10.228c-10.129,0-16.583-9.235-16.583-23.733,0-14.4,6.454-23.038,16.583-23.038,10.029,0,16.583,8.639,16.583,23.038C137.84,168.969,131.286,178.2,121.257,178.2Zm41.706,9.036h11.022v-28.4c0-7.249-.794-15.292-1.489-22.044h.4a144.82,144.82,0,0,0,6.653,14.7l19.463,35.748h12.611V122.3H200.6v28.4c0,7.15.794,15.094,1.489,22.045h-.4a144.818,144.818,0,0,0-6.653-14.7L175.573,122.3H162.962Zm65.141,0h11.022v-28.4c0-7.249-.794-15.292-1.49-22.044h.4a144.824,144.824,0,0,0,6.653,14.7l19.463,35.748H276.76V122.3H265.737v28.4c0,7.15.794,15.094,1.49,22.045h-.4a144.818,144.818,0,0,0-6.653-14.7L240.714,122.3H228.1Zm65.141,0H333.46v-9.93h-28.4V158.444H328.3v-9.93H305.06V132.229h27.407V122.3H293.243Zm79.44,1.192A26.049,26.049,0,0,0,393.238,179l-6.355-7.05a17.724,17.724,0,0,1-13.7,6.256c-10.824,0-17.675-8.937-17.675-23.534,0-14.5,7.547-23.236,17.874-23.236a16.856,16.856,0,0,1,12.313,5.164l6.256-7.249a25.411,25.411,0,0,0-18.768-8.242c-16.484,0-29.79,12.611-29.79,33.861C343.39,176.516,356.4,188.432,372.683,188.432Zm42.9-1.192H427.4V132.229h18.668V122.3H396.912v9.93H415.58Zm73.68-49.948c0-4.866,2.88-8.242,6.852-8.242,3.674,0,5.164,2.681,5.164,6.057,0,4.965-4.171,8.242-9.433,11.519A20.755,20.755,0,0,1,489.261,137.293Zm2.88,51.139a30.546,30.546,0,0,0,19.661-6.951,51.6,51.6,0,0,0,15.789,6.951l2.979-9.533c-3.476-.7-7.447-2.582-11.717-5.064a70.31,70.31,0,0,0,11.121-22.541H519.15a48,48,0,0,1-8.242,17.08,81.242,81.242,0,0,1-14.6-14.6c7.05-4.866,14.1-10.228,14.1-18.768,0-8.341-5.461-13.9-14.5-13.9-10.029,0-16.484,7.348-16.484,16.285,0,4.369,1.49,9.334,4.171,14.3-6.554,4.27-12.313,9.533-12.313,18.47C471.287,180.29,479.033,188.432,492.14,188.432Zm-9.632-18.966c0-3.873,2.482-7.05,5.958-9.93a93.421,93.421,0,0,0,15.292,16.087c-3.277,2.284-6.752,3.773-10.228,3.773C487.175,179.4,482.508,175.424,482.508,169.466ZM108.3,293.988h40.216v-9.93h-28.4V265.191h23.236v-9.93H120.115V238.976h27.407v-9.93H108.3Zm53.522,0h38.628v-9.93H173.637V229.046H161.82Zm49.948,0h40.216v-9.93h-28.4V265.191h23.236v-9.93H223.585V238.976h27.407v-9.93H211.768Zm64.644,0h14l20.456-64.942H298.754l-9.235,32.471c-2.085,7.348-3.476,13.7-5.66,21.052h-.4c-2.185-7.348-3.674-13.7-5.66-21.052l-8.639-32.471H256.651ZM330.53,259.63c2.085-6.852,3.972-14.2,5.66-21.349h.4c1.887,7.05,3.773,14.5,5.859,21.349l2.185,7.745H328.346Zm-21.846,34.358H320.7l4.965-17.377h21.548l4.965,17.377h12.512l-21.052-64.942h-13.9Zm70.6,0H391.1V238.976h18.668v-9.93H360.618v9.93h18.668Zm41.309,0h40.216v-9.93h-28.4V265.191h23.236v-9.93H432.412V238.976h27.407v-9.93H420.6Z" transform="translate(-3321 -216)" fill="#e2b841"/><path d="M50.891,0H281.762a50.891,50.891,0,0,1,0,101.782H50.891A50.891,50.891,0,0,1,50.891,0Z" transform="translate(-3184.501 130.12)" fill="#e2b841"/><path d="M-32.16,16.938c5.481,0,8.9-3.3,8.9-7.428,0-3.853-2.343-5.68-5.362-6.951L-32.359.931c-2.026-.834-4.29-1.787-4.29-4.29,0-2.3,1.907-3.773,4.806-3.773a8.463,8.463,0,0,1,5.879,2.423l1.827-2.224a10.869,10.869,0,0,0-7.706-3.138c-4.727,0-8.182,2.939-8.182,6.911,0,3.853,2.82,5.68,5.243,6.713l3.773,1.668c2.423,1.072,4.329,1.907,4.329,4.568,0,2.5-2.026,4.21-5.442,4.21a10.355,10.355,0,0,1-7.308-3.138L-41.3,13.046A12.234,12.234,0,0,0-32.16,16.938Zm13.664-.477h3.3v-19.3h-3.3Zm1.668-23.276a2.054,2.054,0,0,0,2.185-2.145A2.075,2.075,0,0,0-16.829-11.1a2.075,2.075,0,0,0-2.185,2.145A2.054,2.054,0,0,0-16.829-6.814ZM-2.172,25.359c6,0,9.771-3.1,9.771-6.713,0-3.178-2.264-4.608-6.752-4.608H-2.887c-2.582,0-3.376-.874-3.376-2.065a2.819,2.819,0,0,1,1.231-2.3,6.573,6.573,0,0,0,2.86.675c3.932,0,7.07-2.582,7.07-6.713A5.476,5.476,0,0,0,3.349-.3H7.281V-2.842H.569a7.708,7.708,0,0,0-2.741-.477c-3.932,0-7.269,2.661-7.269,6.872a6.833,6.833,0,0,0,2.5,5.2v.159A4.522,4.522,0,0,0-9.044,12.49a3.563,3.563,0,0,0,1.708,3.138v.159c-1.748,1.192-2.82,2.741-2.82,4.369C-10.156,23.492-6.9,25.359-2.172,25.359Zm0-17.238c-2.224,0-4.091-1.748-4.091-4.568S-4.436-.936-2.172-.936,1.919.772,1.919,3.553C1.919,6.373.052,8.12-2.172,8.12ZM-1.7,23.055c-3.5,0-5.6-1.271-5.6-3.336A4.067,4.067,0,0,1-5.31,16.462a9.4,9.4,0,0,0,2.5.318h3.3c2.542,0,3.893.6,3.893,2.383C4.382,21.148,1.959,23.055-1.7,23.055Zm13.068-6.593h3.3V2.48c1.907-1.946,3.3-2.939,5.243-2.939,2.542,0,3.654,1.509,3.654,5.124v11.8h3.3V4.228c0-4.925-1.827-7.547-5.918-7.547-2.661,0-4.647,1.43-6.474,3.257h-.119l-.278-2.78h-2.7Zm20.1-8.7h9.136V5.221H31.471Zm19.622,9.175c2.661,0,4.568-1.39,6.355-3.5h.119l.278,3.019h2.7v-19.3h-3.3V10.821c-1.787,2.264-3.178,3.257-5.124,3.257-2.542,0-3.654-1.549-3.654-5.124v-11.8h-3.3V9.391C45.174,14.317,47,16.938,51.092,16.938ZM67.06,24.6h3.3V18.09l-.079-3.376A8.848,8.848,0,0,0,75.6,16.938c4.409,0,8.381-3.853,8.381-10.407,0-6-2.7-9.851-7.666-9.851a10.086,10.086,0,0,0-6.157,2.7h-.119l-.278-2.224h-2.7Zm7.984-10.446a7.464,7.464,0,0,1-4.687-1.986V2.083C72.223.335,73.852-.539,75.48-.539c3.615,0,5.084,2.82,5.084,7.07C80.564,11.3,78.221,14.158,75.043,14.158Zm22,2.3h3.3V2.48c1.907-1.946,3.3-2.939,5.243-2.939,2.542,0,3.654,1.509,3.654,5.124v11.8h3.3V4.228c0-4.925-1.827-7.547-5.918-7.547-2.661,0-4.647,1.43-6.474,3.257h-.119l-.278-2.78h-2.7Zm29.234.477c4.727,0,8.977-3.694,8.977-10.089,0-6.474-4.25-10.168-8.977-10.168S117.345.375,117.345,6.849C117.345,13.244,121.555,16.938,126.282,16.938Zm0-2.741c-3.3,0-5.521-2.939-5.521-7.348,0-4.449,2.224-7.428,5.521-7.428,3.336,0,5.561,2.979,5.561,7.428C131.843,11.258,129.618,14.2,126.282,14.2Zm16.96,2.264h3.972L149.8,6.095a43.115,43.115,0,0,0,1.231-5.72h.159c.437,2.264.794,3.932,1.271,5.72l2.622,10.367h4.171l5.2-19.3h-3.138l-2.82,11.2c-.437,1.748-.755,3.416-1.152,5.481h-.159c-.4-2.065-.834-3.734-1.271-5.481l-2.939-11.2h-3.535l-2.9,11.2c-.437,1.748-.794,3.416-1.192,5.481h-.159c-.318-2.065-.715-3.734-1.152-5.481l-2.82-11.2H137.84Z" transform="translate(-3079.395 178.203)" fill="#fff"/></g></svg>