<?xml version="1.0" encoding="utf-8"?>
<!-- Generator: Adobe Illustrator 18.1.1, SVG Export Plug-In . SVG Version: 6.00 Build 0)  -->
<svg version="1.1" id="Layer_1" xmlns="http://www.w3.org/2000/svg" xmlns:xlink="http://www.w3.org/1999/xlink" x="0px" y="0px"
	 viewBox="0 0 612 792" enable-background="new 0 0 612 792" xml:space="preserve">
<circle display="none" fill="#FFFFFF" cx="305.6" cy="400.3" r="299.3"/>
<linearGradient id="SVGID_1_" gradientUnits="userSpaceOnUse" x1="14.8559" y1="398.7621" x2="599.856" y2="398.7621">
	<stop  offset="2.463054e-002" style="stop-color:#8D6231"/>
	<stop  offset="0.5172" style="stop-color:#FAF39E"/>
	<stop  offset="0.9852" style="stop-color:#8D6231"/>
</linearGradient>
<circle fill="#FFFFFF" stroke="url(#SVGID_1_)" stroke-width="14" stroke-miterlimit="10" cx="307.4" cy="398.8" r="285.5"/>
<g>
	<path fill="#858585" d="M126.9,490.7c0.4,3.1,2.6,3.2,4.8,3.2c8.2,0,16.3-0.1,24.5,0.1c4.5,0.1,7-1.8,7.3-6.3
		c0.3-4-2.7-7.1-7.2-7.2c-7.3-0.2-14.7,0-22,0c-8.2,0-13.6-4.7-13.6-12c-0.1-7.5,5.4-12.7,13.5-12.7c8.2,0,16.3,0,24.5,0
		c7.3,0.1,11.2,4.6,10.7,11.9c-0.2,2.6-1.3,3.5-3.7,3.5c-10.3,0-20.6,0-31,0c-2.1,0-3.7-0.7-3.7-3c0-2.6,1.9-2.9,3.8-2.9
		c8,0,16,0,24-0.1c1.4,0,3.9,0.9,3.8-1.8c-0.1-2.1-2.2-2.1-3.9-2.1c-8.2,0-16.3-0.1-24.5,0.1c-4.6,0.1-7.7,3-7.6,6.8
		c0.1,3.9,3.1,6.5,7.8,6.5c7.3,0.1,14.7,0,22,0.1c7.6,0.1,13.1,5.5,13,12.7c-0.1,7.2-5.2,11.8-13.1,11.9c-8.5,0-17,0.1-25.5,0
		c-7,0-11.6-6.1-10.1-12.9c0.4-1.9,1.6-2.3,3.2-2.3c10.3,0,20.6,0,31,0.1c2.1,0,5,0.3,4.7,3.2c-0.3,2.7-3,2.7-5.2,2.7
		c-8.3,0-16.6,0-25,0C128.6,490.4,127.8,490.6,126.9,490.7z"/>
	<path fill="#858585" d="M454.8,471.3c-5.2,0-10.3,0.1-15.5,0c-2,0-4.4-0.4-4.3-3.1c0.1-2.5,2.3-2.8,4.5-2.8c8.2,0,16.3,0,24.5-0.1
		c1.1,0,3.1,0.8,3.2-1.2c0.1-1.7-1.6-2.4-3.2-2.5c-3-0.1-6-0.1-9-0.1c-5.5,0-11-0.1-16.5,0c-4.9,0.1-7.5,2.5-7.4,6.8
		c0,4.3,2.5,6.6,7.6,6.6c7.2,0.1,14.3,0,21.5,0c6.9,0,13.5,6.1,13.6,12.3c0,7.4-5.2,12.3-13.2,12.3c-8.3,0-16.7,0-25,0
		c-6.9,0-10.6-4-10.6-11c0-3,1.2-4.2,4.1-4.2c9.8,0.1,19.6,0,29.4,0.1c2.2,0,5.3,0,5.1,3.3c-0.1,2.9-2.9,2.7-5.1,2.7
		c-7.8,0-15.7-0.1-23.5,0c-1.1,0-3-0.8-3.2,1.2c-0.2,1.6,1.4,2.3,2.7,2.3c9.5,0,19,0.2,28.4-0.3c3.6-0.2,5.3-3.4,4.8-7
		c-0.4-3.9-3.2-5.9-6.8-6c-7.7-0.2-15.3-0.1-23-0.1c-7.5,0-12.8-5.1-13-12.2c-0.1-6.9,5.5-12.3,12.8-12.4c8.5-0.1,17-0.1,25.5,0
		c7.2,0,12,6.1,10.5,13.1c-0.5,2.3-1.9,2.3-3.7,2.3C465.1,471.3,460,471.3,454.8,471.3C454.8,471.3,454.8,471.3,454.8,471.3z"/>
	<path fill="#858585" d="M290.9,482.6c0-4.3,0.1-8.7,0-13c-0.1-2.9,1-3.8,3.8-3.7c7.3,0.1,14.7,0.4,22-0.1c6.3-0.4,12.6,4.5,13,11.6
		c0.3,6.3-5.2,12-12.3,12.6c-1.8,0.2-3.7,0-5.5,0c-12.4,0-12.6-0.3-11.1-12.8c0.2-1.7,0.5-3,2.6-2.8c1.7,0.1,2.7,1,2.7,2.9
		c0,1.2,0.1,2.3,0,3.5c-0.3,3.4,1.3,4.8,4.4,4c2.8-0.7,5.6,0.6,8.4-0.5c3.6-1.4,5.6-3.6,5.1-7.5c-0.5-3.9-2.9-5.8-6.8-5.8
		c-5.7,0-11.3,0.1-17-0.1c-3-0.1-4.3,1.1-4.2,4.1c0.1,5.2,0.1,10.3,0,15.5c0,2.6,1,3.6,3.6,3.6c6.7-0.1,13.3,0.2,20-0.2
		c8.1-0.5,14.9-8.8,14.4-17c-0.5-8.7-8.1-15.9-16.4-15.7c-7.6,0.1-15.3,0-22.9-0.1c-1.7,0-3.6,0.1-3.7-2.3c-0.1-2.6,1.7-2.8,3.7-2.8
		c8.2,0,16.3-0.2,24.5,0c10.9,0.4,20.4,11.1,20.1,22.1c-0.3,11-9.9,20.8-20.7,21c-8,0.1-16-0.1-24,0.1c-2.8,0-3.9-0.9-3.8-3.7
		C291,491.3,290.9,487,290.9,482.6z"/>
	<path fill="#858585" d="M267.2,468.1c0-3,0-6,0-9c0-2.1,1-3,3-3c2,0,2.6,1.1,2.6,2.9c0,6.2,0.3,12.3-0.1,18.5
		c-0.5,7.2-7.7,13.1-14.8,12.8c-7.5-0.3-13.7-6.8-13.8-14.3c0-3.8,0-7.7,0-11.5c0-1.4-0.1-2.8-1.9-2.9c-2.1-0.1-2.4,1.4-2.3,3
		c0.2,5.5-0.4,10.9,0.9,16.4c1.7,7.4,8.9,13.1,17.1,13.2c8.8,0.1,16.3-5.2,18.1-12.7c1.7-6.9,0.9-13.9,1.1-20.9
		c0.1-1.9-0.6-4.3,2.5-4.5c3.3-0.2,3.2,2.2,3.1,4.4c-0.2,7.3,0.6,14.6-1.5,21.8c-2.6,9-8.9,14.3-17.5,16.7
		c-8.8,2.4-18.3-1.9-23.7-8.1c-6.8-7.8-6.1-16.8-6.1-25.8c0-10.2-1.2-9,9-9.1c6.6,0,6.7,0,6.6,6.4c0,4.3-0.2,8.6-0.3,13
		c-0.1,5.3,3.6,9.6,8.6,9.7c5.3,0.1,9-3.5,9.1-9C267.3,473.4,267.2,470.7,267.2,468.1z"/>
	<path fill="#858585" d="M202.2,456c6.7,0,13.3,0.1,20,0c2.9-0.1,4.4,0.8,4.1,3.9c-0.1,1.2,0,2.3,0,3.5c0,7.9-1.9,9.3-9.9,7.8
		c-1.9-0.4-2.5-1.4-2.6-3c-0.1-1.7,1-2.3,2.5-2.4c0.5,0,1,0,1.5,0c1.7-0.1,3-0.8,2.8-2.7c-0.2-1.9-1.8-1.7-3.1-1.7c-10,0-20,0-30,0
		c-0.7,0-1.3,0-2,0c-1.2,0.1-2.4,0.2-2.4,1.8c0,1.4,1,2,2.3,2.1c3,0.1,6,0.6,9,0.3c4.1-0.4,5.8,0.8,5.6,5.1c-0.3,6.3-0.1,12.7,0,19
		c0,1.5-0.6,3.9,1.8,4c3,0.1,1.9-2.6,2-4.1c0.1-6.7,0.1-13.3,0.1-20c0-2-0.2-4.2,2.8-4.2c2.7,0,2.7,2,2.7,3.9
		c0,8.8-0.1,17.7,0.1,26.5c0,2.9-1,3.8-3.8,3.7c-14.1-0.3-11.2,1.7-11.5-11.1c-0.1-4.3-0.1-8.7,0-13c0.1-3-1-4.4-4-4.1
		c-0.7,0.1-1.3,0-2,0c-12.5-0.2-10.7,2.2-11.1-11.2c-0.1-3.5,1.5-4.3,4.5-4.2c3.5,0.1,7,0.1,10.5,0.1C195.5,456,198.8,456,202.2,456
		C202.2,456,202.2,456,202.2,456z"/>
	<path fill="#858585" d="M392.5,501.2c-11.1,0.6-23.4-8.1-24.1-23.3c-0.6-12.5,11.5-23.9,24.4-23.9c13.1,0.1,24.4,11.1,24.3,23.9
		C417.1,490.8,404.5,502.9,392.5,501.2z M411.6,477.8c0-8.5-6.7-18.5-18.7-18.6c-12.3-0.1-19.1,9.6-19.2,18.6
		c-0.1,10,8.9,18.8,19,18.6C403.1,496.3,411.6,487.9,411.6,477.8z"/>
	<path fill="#858585" d="M344.9,477.6c0-5.8,0.1-11.6,0-17.5c-0.1-3,1-4.2,4-4.1c13.1,0.2,11.1-1.8,11.3,10.8c0.1,6.3,0,12.6,0,19
		c0,2,0.1,4.4-2.8,4.3c-3,0-2.6-2.5-2.6-4.4c0-6.8,0-13.6,0-20.5c0-1.8,0.3-4-2.5-3.8c-2.6,0.1-2,2.2-2,3.8
		c-0.1,8.2,0.1,16.3-0.1,24.4c-0.1,3.5,1.1,4.9,4.6,4.4c1.1-0.1,2.3,0,3.5,0.1c1.8,0.2,2,1.5,1.9,2.9c0,1.4-0.7,2.2-2.1,2.2
		c-3.7,0-7.3,0.1-11,0c-2.3-0.1-2.2-2-2.2-3.7C344.9,489.6,344.9,483.6,344.9,477.6z"/>
	<path fill="#858585" d="M406.9,477.8c0.1,7.9-6.1,14-14.2,14.1c-7.2,0.1-14.2-6.7-14.3-13.9c-0.1-7.5,6.8-14.5,14.3-14.4
		C400.6,463.7,406.8,469.9,406.9,477.8z M401.7,477.8c0-5-4.4-9.3-9.2-9.2c-5,0.2-9,4.4-9,9.5c0.1,4.9,4.3,8.9,9.5,8.8
		C397.9,486.8,401.8,482.8,401.7,477.8z"/>
	<g>
		<path fill="#858585" d="M264.1,428.4c4.4,3.6,24.4,3.8,28,0.9c1.7-1.4,2.5-3.3,1.5-5.3c-1.2-2.5-3.1-4.4-6.1-4.4
			c-5.8,0-11.7,0-17.5,0c-6.5,0-11-4.1-10.9-9.7c0.1-5.4,4.7-9.5,10.8-9.6c6.7-0.1,13.3,0,20,0c4.7,0,8.3,3.3,8.7,7.8
			c0.2,2.4-0.6,4.1-3.6,4c-8-0.1-16,0-24,0c-1.6,0-3.8,0.2-3.5-2.3c0.2-1.9,2.1-2.3,3.9-2.3c6,0.1,12,0.2,18,0.2
			c1.2,0,3.1,0.6,3.3-1.2c0.2-1.6-1.6-2.1-2.8-2.1c-6.8-0.1-13.7-0.2-20.5,0.2c-3.2,0.2-5.7,2.3-5.2,6c0.4,3.6,3.2,5.2,6.4,4.9
			c6-0.6,12-0.1,17.9,0.2c5.6,0.3,9.7,4,9.8,9.1c0.1,5.5-3.3,9.8-8.9,10.1c-7.6,0.4-15.3,0.3-23,0c-4.4-0.2-7.9-5.4-7.3-9.8
			c0.3-2.5,2-2.2,3.7-2.2c7.7,0,15.3,0,23,0c1.7,0,4.3-0.4,4.2,2.2c-0.1,2.5-2.5,2.7-4.6,2.7c-5.8,0-11.7,0-17.5,0
			C266.9,428,265.9,428.2,264.1,428.4z"/>
		<path fill="#858585" d="M448,408c6.9-10.4,16-7.6,25.7-7.3c-7.6,7.1-14.3,13.5-21.1,19.7c-2.7,2.4-2.9,4.2,0.4,6
			c2.4,1.4,3.7,4.9,7.7,4.1c-0.7-2.6-2.8-3.7-4.4-5.2c-1.1-1-1.9-2-0.8-3.4c1.1-1.5,2.6-1.4,3.9-0.2c4.7,4.1,9.3,8.4,15,13.5
			c-9.3,0-17.3,2.5-24.2-4.7c-7.5-7.8-7.8-7.4,0.3-14.7c2.7-2.4,5.4-5,8-7.5c0.8-0.7,2.6-1.2,1.7-2.5c-0.9-1.4-2.5-0.5-3.5,0.4
			c-3.3,3-6.6,6.1-9.8,9.2c-0.8,0.8-1.5,2.2-2.8,1.8c-1.7-0.5-1-2.2-1-3.5c-0.1-2,0-4-0.1-6c0-0.8-0.2-1.7-1.2-1.9
			c-1.1-0.1-1.4,0.8-1.4,1.6c-0.1,7.2-0.1,14.3,0,21.5c0,2,1.6,2.3,3.2,2.2c3-0.2,4.8,1.5,7.3,3.8c-5.1,1.3-9.4,0.5-13.6,0.6
			c-1.7,0-2.3-1.1-2.3-2.6c0-9.8,0-19.7,0-29.5c0-2.1,0.9-3.1,3-3c1,0,2,0,3,0C447.1,400.2,447.1,400.2,448,408z"/>
		<path fill="#858585" d="M415.3,400.3c3.2,0,6.3,0.1,9.5,0c3-0.2,4.3,1.1,4,4.1c-0.2,1.7-0.1,3.3-0.2,5c-0.1,2.6-1.1,3.7-4.1,3.5
			c-5.5-0.4-11-0.1-16.5-0.2c-3.7,0-6.5,1.7-6.4,5.4c0.1,3.8,3.1,5.1,6.7,5c3.3-0.1,6.7,0,10,0c1.6,0,2.5,0.8,2.5,2.5
			c0,1.6-0.8,2.6-2.4,2.5c-4.9-0.3-9.9,1-14.8-1.2c-5-2.2-7.2-5.5-6.4-10.5c0.7-4.8,4.6-8.3,9.7-8.4c4.7-0.2,9.3,0,14-0.1
			c1.1,0,2.6,0.2,2.5-1.6c-0.1-1.3-1.4-1.3-2.3-1.3c-5.3,0-10.7-0.3-16,0.1c-5.9,0.4-10.5,5.5-10.9,11.2c-0.5,6.9,2.9,12,8.9,13.8
			c6.1,1.8,12.2,0.8,18.4,0.9c3.2,0.1,2.2-2.6,2.4-4.5c0.2-1.6-0.3-3.6,2.3-3.5c2.4,0.1,2.4,2.1,2.5,3.7c0.2,2.1,0,4.3-0.1,6.4
			c0,2.2-1.5,2.3-3.1,2.3c-6.8,0-13.7,0.2-20.5-0.2c-8.3-0.5-16.2-9.6-16-17.6c0.2-9.1,8.3-17.2,17.3-17.3
			C409.3,400.2,412.3,400.3,415.3,400.3z"/>
		<path fill="#858585" d="M233.6,400.4c4,0,8-0.1,12,0c5.7,0.1,10.1,4.4,10.1,9.6c-0.1,5.3-4.4,9.6-10,9.7c-6.5,0.1-13,0-19.5,0.1
			c-1.7,0-4.2-0.8-4.8,1.5c-0.7,2.9-0.8,5.9,0.2,8.8c0.1,0.3,0.9,0.6,1.2,0.5c0.9-0.2,1-1.1,1.2-2c0.4-2-1.2-5.6,2.5-5.4
			c4,0.3,1.9,4,2,6.1c0.2,1.9,1.4,5-1.3,5.7c-3.1,0.9-6.6,0.8-9.9-0.1c-1.1-0.3-1.2-1.5-1.3-2.5c0-4.5,0-9,0-13.5
			c0-3.2,2.1-3.7,4.7-3.6c7.7,0.1,15.3-0.1,23,0c3.8,0,6.7-1,7.1-5.2c0.3-3.3-3-5.6-7.5-5.5c-6.2,0.1-12.3,0.2-18.5,0.3
			c-1.2,0-3.1-0.6-3.2,1.2c-0.1,1.9,1.9,1.5,3.1,1.5c5.8,0.1,11.7,0.1,17.5,0.1c2,0,4.8-0.1,4.7,2.4c-0.1,2.5-2.9,2.1-4.9,2.1
			c-7.2,0-14.3-0.2-21.5,0.1c-5.1,0.2-4.5-3.1-4.6-6.3c-0.1-3.2-0.4-6.1,4.4-5.8C224.9,400.5,229.3,400.3,233.6,400.4
			C233.6,400.3,233.6,400.3,233.6,400.4z"/>
		<path fill="#858585" d="M145.6,435.5c-3.9-0.4-8.7,0.7-13.4-1.2c-8.4-3.4-12.9-11.3-11.2-20.3c1.4-7.6,9.1-13.6,17.4-13.7
			c5.8,0,11.7,0.1,17.5-0.1c3.3-0.1,4.3,1.1,4.3,4.3c-0.2,9.7,0.6,8-7.9,8.2c-4.2,0.1-8.3,0-12.5,0c-3.5,0-6.4,1-6.3,5.3
			c0.1,4.3,3,5.1,6.4,5.2c2.8,0.1,5.7,0,8.5,0c1.5,0,3.3-0.1,3.4,2c0.1,1.9-1.5,2.5-3.1,2.4c-4.3-0.2-8.6,0.7-12.9-0.6
			c-4.7-1.4-8.5-5.8-7.7-9.9c1-5.1,3.1-8.8,9.4-8.9c4.5-0.1,9,0.1,13.5,0c1.7,0,4.3,0.8,4.3-1.9c0-2.4-2.5-1.5-4-1.5
			c-4.3-0.1-8.7-0.1-13,0c-8.5,0.3-14.5,7.6-13,15.9c0.9,5.1,5.7,10.1,14.1,10.3c2.8,0.1,5.7,0,8.5,0c4.1,0,8.9,1,7.9-5.9
			c-0.2-1,0.5-1.9,1.7-2c1.4-0.1,2.3,0.6,2.4,2c0.1,2.8,0.2,5.7,0,8.5c-0.1,2.1-2,1.9-3.4,2C153.1,435.5,149.8,435.5,145.6,435.5z"
			/>
		<path fill="#858585" d="M324.5,435.3c-5.2,0-10.3,0.1-15.5,0c-1.5,0-3.9,0.7-3.9-1.8c-0.1-2.8,2.4-2.2,4.1-2.2
			c8-0.1,16-0.1,24-0.1c1,0,2,0.1,3,0c1.1-0.1,2.6,0,2.5-1.7c-0.1-1.6-1.7-1.3-2.7-1.4c-1.5-0.1-3,0-4.5,0c-7.2,0-14.3-0.2-21.5,0.1
			c-4,0.2-5.2-1.3-5.1-5.2c0.3-6,0.2-12,0-18c-0.1-3.5,1-5,4.5-4.6c1.3,0.2,2.7,0.1,4,0c2.7-0.2,3.9,0.6,3.9,3.6
			c-0.1,4,0.4,8,0.4,11.9c0,1.8-0.4,4-2.9,3.8c-2.5-0.2-1.7-2.5-1.7-3.9c-0.1-3,0-6-0.1-9c0-1-0.3-2.1-1.7-2
			c-0.9,0.1-1.3,0.9-1.4,1.8c-0.8,4.8-0.7,9.6,0,14.4c0.4,2.7,2.6,2.1,4.3,2.1c8.5,0,17,0.3,25.5-0.1c5.6-0.3,5,2.9,5.2,6.6
			c0.3,4.1-0.7,6.2-5.4,5.8C334.5,435.1,329.5,435.4,324.5,435.3C324.5,435.3,324.5,435.3,324.5,435.3z"/>
		<path fill="#858585" d="M172.4,430.2c2.7,0.8,3.5-0.4,4.4-2c4.1-6.9,8.4-13.7,12.5-20.6c1.7-2.8,2.6-3.5,4.6,0
			c4.5,8.1,9.3,16.1,14.2,24c2.1,3.3,0.8,3.4-2.3,4c-8.4,1.7-12.5-2.8-15.5-9.5c-0.9-2-1.4-4.1,0.8-5.3c2.6-1.5,2.3,1.6,3.1,2.7
			c1.5,1.9,2.7,4.2,4,6.3c0.5,0.7,1.2,1.4,2.1,1c1.2-0.6,0.9-1.7,0.4-2.5c-2.4-4.2-4.8-8.3-7.3-12.4c-1.4-2.3-2.5-1.4-3.6,0.5
			c-2.7,4.6-5.8,8.9-8,13.7c-2.2,4.7-5.3,6.3-10.2,5.6c-2.1-0.3-5,1.1-6.1-0.7c-1.3-2.1,1.3-4.1,2.4-6c4.7-8.2,9.6-16.3,14.4-24.4
			c0.7-1.1,1.3-2.4,2.2-3.3c1.2-1.3,2.9-1.1,4.1-0.2c1.3,1.1-0.2,2.1-0.7,3c-4.7,7.9-9.5,15.6-14.3,23.5
			C173.1,428.2,172.9,429.1,172.4,430.2z"/>
		<path fill="#858585" d="M385.6,418c0,10.6-8.7,19.1-19.5,19.1c-10-0.1-19.2-9.3-19.2-19.2c0-10.3,8.7-19,19.1-19.1
			C377.3,398.7,385.5,406.7,385.6,418z M366.2,402.9c-9,0-14.7,5.7-14.9,14.9c-0.1,8.3,6.6,14.8,15.4,14.8c8.3,0,14.9-6.5,14.9-14.8
			C381.6,409.3,374.9,402.9,366.2,402.9z"/>
		<path fill="#858585" d="M355.3,418c0-6.5,4.7-11.3,11.2-11.4c6.1,0,11.8,5.4,11.7,11.2c0,5.6-5.6,11-11.4,11.1
			C360.1,429,355.3,424.5,355.3,418z M366.3,424.8c4.3,0,7.3-2.9,7.3-7.1c0-4.1-2.7-6.9-6.8-7c-4.3-0.1-7.4,2.7-7.5,6.8
			C359.1,421.7,362.1,424.8,366.3,424.8z"/>
	</g>
	<linearGradient id="SVGID_2_" gradientUnits="userSpaceOnUse" x1="232.0364" y1="308.1877" x2="357.0364" y2="308.1877">
		<stop  offset="2.463054e-002" style="stop-color:#8D6231"/>
		<stop  offset="0.5172" style="stop-color:#FAF39E"/>
		<stop  offset="0.9852" style="stop-color:#8D6231"/>
	</linearGradient>
	<path fill="url(#SVGID_2_)" d="M357,308.2c0,34.5-28,62.5-62.5,62.5s-62.5-28-62.5-62.5s28-62.5,62.5-62.5S357,273.7,357,308.2z
		 M292.8,264.9c-23.9,0-43.3,19.2-43.3,42.8s19.4,42.8,43.3,42.8c23.9,0,43.3-19.2,43.3-42.8S316.7,264.9,292.8,264.9z"/>
	<linearGradient id="SVGID_3_" gradientUnits="userSpaceOnUse" x1="282.3559" y1="306.1877" x2="314.3559" y2="306.1877">
		<stop  offset="2.463054e-002" style="stop-color:#8D6231"/>
		<stop  offset="0.5172" style="stop-color:#FAF39E"/>
		<stop  offset="0.9852" style="stop-color:#8D6231"/>
	</linearGradient>
	<polygon fill="url(#SVGID_3_)" points="282.4,324.4 282.4,288 314.4,306.2 	"/>
</g>
</svg>
