<svg xmlns="http://www.w3.org/2000/svg" xmlns:xlink="http://www.w3.org/1999/xlink" width="198" height="193" viewBox="0 0 198 193"><defs><clipPath id="a"><rect width="8.001" height="11.366" fill="none"/></clipPath></defs><g transform="translate(3476 -3752)"><g transform="translate(-3476 3752)" fill="#e2b841"><path d="M 197 192 L 1 192 L 1 1 L 197 1 L 197 192 Z" stroke="none"/><path d="M 2 2 L 2 191 L 196 191 L 196 2 L 2 2 M 0 0 L 198 0 L 198 193 L 0 193 L 0 0 Z" stroke="none" fill="#fff"/></g><g transform="translate(-3463.999 3923.913)"><path d="M36.176,631.921h-1.83a.18.18,0,0,0-.158.094l-3.172,5.726a.353.353,0,0,1-.344.207.387.387,0,0,1-.351-.206l-3.172-5.726a.18.18,0,0,0-.157-.094h-1.83a.183.183,0,0,0-.157.273l3.615,6.514a2.172,2.172,0,0,0,.889.922,2.376,2.376,0,0,0,2.308,0,2.261,2.261,0,0,0,.9-.919l3.616-6.517a.183.183,0,0,0-.158-.273" transform="translate(-24.98 -631.921)" fill="#fff"/><path d="M98.007,631.921h-1.63a.182.182,0,0,0-.181.183v4.9a.9.9,0,0,1-.26.653.84.84,0,0,1-.635.268H91.581a.86.86,0,0,1-.625-.251.97.97,0,0,1-.284-.7V632.1a.182.182,0,0,0-.181-.183H88.876a.182.182,0,0,0-.181.183v4.9a2.908,2.908,0,0,0,.227,1.143,2.954,2.954,0,0,0,.615.927,2.912,2.912,0,0,0,.915.623,2.8,2.8,0,0,0,1.129.23H95.3a2.768,2.768,0,0,0,1.115-.23,3,3,0,0,0,.921-.622,2.909,2.909,0,0,0,.85-2.071v-4.9a.182.182,0,0,0-.181-.183" transform="translate(-75.94 -631.921)" fill="#fff"/><path d="M218.754,639.662l-.452-.8h0l-3.256-5.748a2.147,2.147,0,0,0-.889-.9,2.43,2.43,0,0,0-2.308,0,2.237,2.237,0,0,0-.9.9l-3.258,5.751h0l-.452.8a.179.179,0,0,0,.158.267h1.83a.181.181,0,0,0,.158-.091l.153-.271h0l.747-1.322h5.426l.754,1.335h0l.146.258a.181.181,0,0,0,.158.091h1.83a.179.179,0,0,0,.158-.267m-7.62-2.926,1.513-2.678a.352.352,0,0,1,.344-.2.389.389,0,0,1,.351.2l1.513,2.679Z" transform="translate(-170.731 -631.921)" fill="#fff"/><path d="M153.64,631.921h-.784a.886.886,0,0,0-.814.477l-2.965,5.353a.395.395,0,0,1-.683,0L145.43,632.4a.887.887,0,0,0-.814-.477h-.784a.828.828,0,0,0-.6.259.845.845,0,0,0-.239.587v6.98a.182.182,0,0,0,.181.183h1.616a.182.182,0,0,0,.181-.183v-3.906a.054.054,0,0,1,.054-.055.054.054,0,0,1,.049.031h0l1.6,2.893a2.173,2.173,0,0,0,.889.921,2.414,2.414,0,0,0,2.329,0,2.175,2.175,0,0,0,.889-.921l1.6-2.893h0a.054.054,0,0,1,.049-.031.054.054,0,0,1,.054.055v3.906a.182.182,0,0,0,.181.183h1.616a.182.182,0,0,0,.181-.183v-6.98a.845.845,0,0,0-.239-.587.828.828,0,0,0-.6-.259" transform="translate(-119.371 -631.921)" fill="#fff"/></g><path d="M2.106,0H3.445L4.68-5.148c.143-.676.273-1.261.4-2h.052c.117.741.221,1.326.377,2L6.773,0H8.125L9.906-8.528H8.853l-.91,4.641c-.156.923-.312,1.833-.455,2.795H7.436c-.182-.962-.4-1.885-.611-2.795L5.668-8.528H4.589L3.406-3.887C3.2-2.964,3-2.054,2.834-1.092H2.782c-.156-.962-.3-1.872-.468-2.795L1.43-8.528H.3ZM13.832.156a3.488,3.488,0,0,0,2.093-.65l-.377-.689a2.784,2.784,0,0,1-1.586.468,2.08,2.08,0,0,1-2.08-2.158h4.251a3.327,3.327,0,0,0,.052-.637c0-1.82-.923-2.964-2.535-2.964a3.042,3.042,0,0,0-2.834,3.315A3.009,3.009,0,0,0,13.832.156ZM11.882-3.7a1.908,1.908,0,0,1,1.794-1.911c.962,0,1.547.663,1.547,1.911ZM20.332,0h1.079V-4.576a2.373,2.373,0,0,1,1.716-.962c.832,0,1.2.494,1.2,1.677V0H25.4V-4c0-1.612-.6-2.47-1.937-2.47a2.967,2.967,0,0,0-2.093,1.04l.039-1.3V-9.256H20.332ZM28.86.156a3.268,3.268,0,0,0,2.08-.91h.039l.1.754h.884V-3.887c0-1.56-.663-2.587-2.2-2.587a4.58,4.58,0,0,0-2.483.819l.416.728a3.521,3.521,0,0,1,1.885-.65c1.027,0,1.287.767,1.3,1.56-2.7.3-3.874.975-3.874,2.379A1.712,1.712,0,0,0,28.86.156Zm.3-.884c-.611,0-1.092-.273-1.092-.975,0-.819.689-1.3,2.821-1.547v1.716A2.583,2.583,0,0,1,29.159-.728ZM35.321,0h1.261l2.236-6.318H37.752L36.569-2.743c-.195.624-.4,1.261-.585,1.872h-.052c-.195-.611-.39-1.248-.585-1.872L34.164-6.318H33.046Zm7.215.156a3.488,3.488,0,0,0,2.093-.65l-.377-.689a2.784,2.784,0,0,1-1.586.468,2.08,2.08,0,0,1-2.08-2.158h4.251a3.328,3.328,0,0,0,.052-.637c0-1.82-.923-2.964-2.535-2.964A3.042,3.042,0,0,0,39.52-3.159,3.009,3.009,0,0,0,42.536.156ZM40.586-3.7A1.908,1.908,0,0,1,42.38-5.616c.962,0,1.547.663,1.547,1.911Z" transform="translate(-3457.7 3807.856)" fill="#fff"/><path d="M3.055.156a2.94,2.94,0,0,0,1.2-.273L4.03-.884A1.712,1.712,0,0,1,3.3-.728c-.715,0-.975-.442-.975-1.209v-3.51H4.043v-.871H2.327V-8.346h-.9L1.3-6.318l-.988.065v.806h.936v3.484C1.248-.7,1.7.156,3.055.156Zm4.693,0a3.02,3.02,0,0,0,2.938-3.3A3.028,3.028,0,0,0,7.748-6.474,3.019,3.019,0,0,0,4.823-3.146,3.01,3.01,0,0,0,7.748.156Zm0-.9c-1.079,0-1.807-.962-1.807-2.4s.728-2.431,1.807-2.431,1.82.975,1.82,2.431S8.84-.741,7.748-.741ZM15.119,0H16.2V-5.447h1.326v-.871H16.2v-.988c0-.806.286-1.235.884-1.235a2.37,2.37,0,0,1,.7.13l.234-.793a2.755,2.755,0,0,0-1.053-.208c-1.261,0-1.846.819-1.846,2.106v.988l-.858.065v.806h.858Zm3.614,0h1.079V-4.056c.429-1.066,1.066-1.443,1.6-1.443a1.843,1.843,0,0,1,.572.078l.234-.923a1.494,1.494,0,0,0-.676-.13,2.195,2.195,0,0,0-1.794,1.3h-.039l-.091-1.144h-.884Zm6.942.156a3.488,3.488,0,0,0,2.093-.65l-.377-.689a2.784,2.784,0,0,1-1.586.468,2.08,2.08,0,0,1-2.08-2.158h4.251a3.327,3.327,0,0,0,.052-.637c0-1.82-.923-2.964-2.535-2.964a3.042,3.042,0,0,0-2.834,3.315A3.009,3.009,0,0,0,25.675.156ZM23.725-3.7a1.908,1.908,0,0,1,1.794-1.911c.962,0,1.547.663,1.547,1.911Zm8.4,3.861a3.488,3.488,0,0,0,2.093-.65l-.377-.689a2.784,2.784,0,0,1-1.586.468,2.08,2.08,0,0,1-2.08-2.158h4.251a3.327,3.327,0,0,0,.052-.637c0-1.82-.923-2.964-2.535-2.964a3.042,3.042,0,0,0-2.834,3.315A3.009,3.009,0,0,0,32.123.156ZM30.173-3.7a1.908,1.908,0,0,1,1.794-1.911c.962,0,1.547.663,1.547,1.911ZM38.584,0h4.68V-.9h-1.7v-7.4h-.832a4.917,4.917,0,0,1-1.768.611v.7h1.521V-.9h-1.9ZM51.142.156a3.684,3.684,0,0,0,2.639-.988V-4.42H50.973v.9H52.78V-1.3a2.333,2.333,0,0,1-1.534.494c-1.82,0-2.821-1.339-2.821-3.484,0-2.119,1.092-3.432,2.808-3.432a2.388,2.388,0,0,1,1.833.767l.6-.676a3.231,3.231,0,0,0-2.457-1.053c-2.262,0-3.913,1.677-3.913,4.42C47.294-1.482,48.893.156,51.142.156Zm7.358,0c1.443,0,2.743-1.261,2.743-3.419,0-1.95-.884-3.211-2.509-3.211a3.237,3.237,0,0,0-1.989.871l.039-1.131V-9.256H55.705V0h.858l.1-.65h.039A2.8,2.8,0,0,0,58.5.156Zm-.182-.91a2.39,2.39,0,0,1-1.534-.65v-3.3a2.519,2.519,0,0,1,1.677-.858c1.183,0,1.664.923,1.664,2.314C60.125-1.69,59.358-.754,58.318-.754Zm4.589,3.419h1.079V.533L63.96-.572A2.9,2.9,0,0,0,65.7.156c1.443,0,2.743-1.261,2.743-3.406,0-1.963-.884-3.224-2.509-3.224a3.3,3.3,0,0,0-2.015.884h-.039l-.091-.728h-.884ZM65.52-.754a2.443,2.443,0,0,1-1.534-.65v-3.3a2.546,2.546,0,0,1,1.677-.858c1.183,0,1.664.923,1.664,2.314C67.327-1.69,66.56-.754,65.52-.754Zm6.253.91c1.495,0,2.314-.858,2.314-1.885,0-1.144-.949-1.573-1.937-1.924-.793-.273-1.339-.507-1.339-1.079,0-.468.351-.91,1.157-.91a2.359,2.359,0,0,1,1.456.507l.494-.624a3.035,3.035,0,0,0-1.963-.715c-1.378,0-2.184.78-2.184,1.794,0,1.04.91,1.5,1.859,1.833.715.26,1.417.533,1.417,1.183,0,.546-.4.975-1.235.975a2.771,2.771,0,0,1-1.9-.689l-.494.624A3.357,3.357,0,0,0,71.773.156ZM78.351,0H79.43V-5.447h1.326v-.871H79.43v-.988c0-.806.286-1.235.884-1.235a2.37,2.37,0,0,1,.7.13L81.25-9.2A2.755,2.755,0,0,0,80.2-9.412c-1.261,0-1.846.819-1.846,2.106v.988l-.858.065v.806h.858Zm3.614,0h1.079V-6.318H81.965Zm.546-7.618a.672.672,0,0,0,.715-.7.679.679,0,0,0-.715-.7.679.679,0,0,0-.715.7A.672.672,0,0,0,82.511-7.618ZM87.971.156c1.443,0,2.743-1.261,2.743-3.419,0-1.95-.884-3.211-2.509-3.211a3.237,3.237,0,0,0-1.989.871l.039-1.131V-9.256H85.176V0h.858l.1-.65h.039A2.8,2.8,0,0,0,87.971.156Zm-.182-.91a2.39,2.39,0,0,1-1.534-.65v-3.3a2.519,2.519,0,0,1,1.677-.858c1.183,0,1.664.923,1.664,2.314C89.6-1.69,88.829-.754,87.789-.754ZM92.378,0h1.079V-4.056c.429-1.066,1.066-1.443,1.6-1.443a1.843,1.843,0,0,1,.572.078l.234-.923a1.494,1.494,0,0,0-.676-.13,2.195,2.195,0,0,0-1.794,1.3h-.039l-.091-1.144h-.884ZM99.32.156a3.488,3.488,0,0,0,2.093-.65l-.377-.689a2.784,2.784,0,0,1-1.586.468,2.08,2.08,0,0,1-2.08-2.158h4.251a3.327,3.327,0,0,0,.052-.637c0-1.82-.923-2.964-2.535-2.964A3.042,3.042,0,0,0,96.3-3.159,3.009,3.009,0,0,0,99.32.156ZM97.37-3.7a1.908,1.908,0,0,1,1.794-1.911c.962,0,1.547.663,1.547,1.911ZM106.951.156a1.367,1.367,0,0,0,.624-.117l-.143-.806a.765.765,0,0,1-.221.026c-.169,0-.312-.117-.312-.455v-8.06H105.82v7.982C105.82-.364,106.145.156,106.951.156ZM109.135,0h1.079V-6.318h-1.079Zm.546-7.618a.672.672,0,0,0,.715-.7.679.679,0,0,0-.715-.7.679.679,0,0,0-.715.7A.672.672,0,0,0,109.681-7.618ZM112.346,0h1.079V-4.576a2.373,2.373,0,0,1,1.716-.962c.832,0,1.2.494,1.2,1.677V0h1.079V-4c0-1.612-.6-2.47-1.937-2.47a2.978,2.978,0,0,0-2.119,1.066h-.039l-.091-.91h-.884ZM122,.156a3.488,3.488,0,0,0,2.093-.65l-.377-.689a2.784,2.784,0,0,1-1.586.468,2.08,2.08,0,0,1-2.08-2.158h4.251a3.327,3.327,0,0,0,.052-.637c0-1.82-.923-2.964-2.535-2.964a3.042,3.042,0,0,0-2.834,3.315A3.009,3.009,0,0,0,122,.156ZM120.055-3.7a1.908,1.908,0,0,1,1.794-1.911c.962,0,1.547.663,1.547,1.911Zm7.5,3.861c1.495,0,2.314-.858,2.314-1.885,0-1.144-.949-1.573-1.937-1.924-.793-.273-1.339-.507-1.339-1.079,0-.468.351-.91,1.157-.91a2.359,2.359,0,0,1,1.456.507l.494-.624a3.035,3.035,0,0,0-1.963-.715c-1.378,0-2.184.78-2.184,1.794,0,1.04.91,1.5,1.859,1.833.715.26,1.417.533,1.417,1.183,0,.546-.4.975-1.235.975a2.771,2.771,0,0,1-1.9-.689l-.494.624A3.357,3.357,0,0,0,127.556.156Z" transform="translate(-3457.7 3855.417)" fill="#fff"/><path d="M1.17,0H2.262V-4H6.214V0H7.306V-8.528H6.214v3.562H2.262V-8.528H1.17ZM12.09.156a3.488,3.488,0,0,0,2.093-.65l-.377-.689a2.784,2.784,0,0,1-1.586.468,2.08,2.08,0,0,1-2.08-2.158h4.251a3.327,3.327,0,0,0,.052-.637c0-1.82-.923-2.964-2.535-2.964A3.042,3.042,0,0,0,9.074-3.159,3.009,3.009,0,0,0,12.09.156ZM10.14-3.7a1.908,1.908,0,0,1,1.794-1.911c.962,0,1.547.663,1.547,1.911ZM17.121.156a1.367,1.367,0,0,0,.624-.117L17.6-.767a.765.765,0,0,1-.221.026c-.169,0-.312-.117-.312-.455v-8.06H15.99v7.982C15.99-.364,16.315.156,17.121.156Zm2.184,2.509h1.079V.533L20.358-.572A2.9,2.9,0,0,0,22.1.156c1.443,0,2.743-1.261,2.743-3.406,0-1.963-.884-3.224-2.509-3.224a3.3,3.3,0,0,0-2.015.884H20.28l-.091-.728h-.884ZM21.918-.754a2.443,2.443,0,0,1-1.534-.65v-3.3a2.546,2.546,0,0,1,1.677-.858c1.183,0,1.664.923,1.664,2.314C23.725-1.69,22.958-.754,21.918-.754Zm9.048.91a2.671,2.671,0,0,0,2.08-1.144h.039L33.176,0h.884V-6.318H32.981v4.472C32.4-1.105,31.941-.78,31.3-.78c-.832,0-1.2-.507-1.2-1.677V-6.318H29.029v4C29.029-.7,29.627.156,30.966.156Zm5.226,2.509h1.079V.533L37.245-.572a2.9,2.9,0,0,0,1.742.728c1.443,0,2.743-1.261,2.743-3.406,0-1.963-.884-3.224-2.509-3.224a3.3,3.3,0,0,0-2.015.884h-.039l-.091-.728h-.884ZM38.805-.754a2.443,2.443,0,0,1-1.534-.65v-3.3a2.546,2.546,0,0,1,1.677-.858c1.183,0,1.664.923,1.664,2.314C40.612-1.69,39.845-.754,38.805-.754Zm5.733.91a1.367,1.367,0,0,0,.624-.117l-.143-.806a.765.765,0,0,1-.221.026c-.169,0-.312-.117-.312-.455v-8.06H43.407v7.982C43.407-.364,43.732.156,44.538.156ZM46.722,0H47.8V-6.318H46.722Zm.546-7.618a.672.672,0,0,0,.715-.7.679.679,0,0,0-.715-.7.679.679,0,0,0-.715.7A.672.672,0,0,0,47.268-7.618ZM50.115,0h1.079V-5.447h2.262v3.484c0,1.261.455,2.119,1.807,2.119a3.9,3.9,0,0,0,1.17-.234L56.225-.9a1.982,1.982,0,0,1-.715.169c-.728,0-.975-.442-.975-1.209v-3.51h1.7v-.871h-1.7V-8.086h-.91L53.5-6.318h-2.3v-.988c0-.819.286-1.235.884-1.235a1.683,1.683,0,0,1,.715.169l.221-.832a2.863,2.863,0,0,0-1.053-.208c-1.261,0-1.846.819-1.846,2.106v.988l-.858.065v.806h.858Zm10.27,2.717c1.261,0,1.924-.949,2.366-2.2L65.13-6.318H64.077L62.946-2.834c-.169.559-.351,1.209-.52,1.781h-.052c-.208-.585-.416-1.235-.624-1.781L60.476-6.318H59.358L61.893.013,61.75.481c-.26.78-.715,1.339-1.417,1.339a1.472,1.472,0,0,1-.468-.078l-.234.845A2.119,2.119,0,0,0,60.385,2.717ZM68.757.156a3.02,3.02,0,0,0,2.938-3.3,3.028,3.028,0,0,0-2.938-3.328,3.019,3.019,0,0,0-2.925,3.328A3.01,3.01,0,0,0,68.757.156Zm0-.9c-1.079,0-1.807-.962-1.807-2.4s.728-2.431,1.807-2.431,1.82.975,1.82,2.431S69.849-.741,68.757-.741Zm6.435.9a2.671,2.671,0,0,0,2.08-1.144h.039L77.4,0h.884V-6.318H77.207v4.472c-.585.741-1.04,1.066-1.677,1.066-.832,0-1.2-.507-1.2-1.677V-6.318H73.255v4C73.255-.7,73.853.156,75.192.156ZM80.418,0H81.5V-4.056C81.926-5.122,82.563-5.5,83.1-5.5a1.843,1.843,0,0,1,.572.078l.234-.923a1.494,1.494,0,0,0-.676-.13,2.195,2.195,0,0,0-1.794,1.3h-.039L81.3-6.318h-.884Zm9.62.156A3.019,3.019,0,0,0,92.079-.65l-.468-.689a2.247,2.247,0,0,1-1.482.6c-1.157,0-1.937-.962-1.937-2.4s.832-2.431,1.976-2.431a1.79,1.79,0,0,1,1.261.52l.533-.676a2.568,2.568,0,0,0-1.846-.741,3.06,3.06,0,0,0-3.042,3.328C87.074-1.053,88.361.156,90.038.156Zm5.616,0a3.02,3.02,0,0,0,2.938-3.3,3.028,3.028,0,0,0-2.938-3.328,3.019,3.019,0,0,0-2.925,3.328A3.01,3.01,0,0,0,95.654.156Zm0-.9c-1.079,0-1.807-.962-1.807-2.4s.728-2.431,1.807-2.431,1.82.975,1.82,2.431S96.746-.741,95.654-.741ZM100.243,0h1.079V-4.576a2.322,2.322,0,0,1,1.573-.962c.806,0,1.17.494,1.17,1.677V0h1.079V-4.576a2.292,2.292,0,0,1,1.586-.962c.793,0,1.17.494,1.17,1.677V0h1.079V-4c0-1.612-.624-2.47-1.924-2.47a2.987,2.987,0,0,0-2.08,1.2,1.667,1.667,0,0,0-1.755-1.2,2.8,2.8,0,0,0-1.963,1.066h-.039l-.091-.91h-.884ZM111.02,0H112.1V-4.576a2.322,2.322,0,0,1,1.573-.962c.806,0,1.17.494,1.17,1.677V0h1.079V-4.576a2.292,2.292,0,0,1,1.586-.962c.793,0,1.17.494,1.17,1.677V0h1.079V-4c0-1.612-.624-2.47-1.924-2.47a2.987,2.987,0,0,0-2.08,1.2A1.667,1.667,0,0,0,114-6.474a2.8,2.8,0,0,0-1.963,1.066H112l-.091-.91h-.884Zm12.623.156a2.671,2.671,0,0,0,2.08-1.144h.039l.091.988h.884V-6.318h-1.079v4.472c-.585.741-1.04,1.066-1.677,1.066-.832,0-1.2-.507-1.2-1.677V-6.318h-1.079v4C121.706-.7,122.3.156,123.643.156ZM128.869,0h1.079V-4.576a2.373,2.373,0,0,1,1.716-.962c.832,0,1.2.494,1.2,1.677V0h1.079V-4c0-1.612-.6-2.47-1.937-2.47a2.978,2.978,0,0,0-2.119,1.066h-.039l-.091-.91h-.884Zm7.111,0h1.079V-6.318H135.98Zm.546-7.618a.672.672,0,0,0,.715-.7.679.679,0,0,0-.715-.7.679.679,0,0,0-.715.7A.672.672,0,0,0,136.526-7.618ZM141.18.156a2.94,2.94,0,0,0,1.2-.273l-.221-.767a1.712,1.712,0,0,1-.728.156c-.715,0-.975-.442-.975-1.209v-3.51h1.716v-.871h-1.716V-8.346h-.9l-.13,2.028-.988.065v.806h.936v3.484C139.373-.7,139.828.156,141.18.156Zm2.535,2.561c1.261,0,1.924-.949,2.366-2.2l2.379-6.838h-1.053l-1.131,3.484c-.169.559-.351,1.209-.52,1.781H145.7c-.208-.585-.416-1.235-.624-1.781l-1.274-3.484h-1.118L145.223.013l-.143.468c-.26.78-.715,1.339-1.417,1.339a1.472,1.472,0,0,1-.468-.078l-.234.845A2.119,2.119,0,0,0,143.715,2.717Z" transform="translate(-3457.7 3778.273)" fill="#fff"/><path d="M5.56.24A4.888,4.888,0,0,0,8.78-.96l-.96-1.5a3.169,3.169,0,0,1-2.02.78c-1.5,0-2.56-1.28-2.56-3.22,0-1.96,1.08-3.24,2.64-3.24A2.315,2.315,0,0,1,7.5-7.5L8.64-8.98a4.176,4.176,0,0,0-2.88-1.1A4.88,4.88,0,0,0,.8-4.9C.8-1.64,2.88.24,5.56.24Zm8.68,0c2.44,0,4.68-1.88,4.68-5.14,0-3.28-2.24-5.18-4.68-5.18-2.46,0-4.7,1.9-4.7,5.18C9.54-1.64,11.78.24,14.24.24Zm0-1.92c-1.42,0-2.26-1.28-2.26-3.22,0-1.96.84-3.24,2.26-3.24S16.5-6.86,16.5-4.9C16.5-2.96,15.66-1.68,14.24-1.68ZM21.16,0h2.38V-6.84a2.943,2.943,0,0,1,2.2-1.2c1.04,0,1.5.58,1.5,2.18V0H29.6V-6.16c0-2.48-.92-3.92-3.04-3.92a4.64,4.64,0,0,0-3.22,1.56h-.06L23.1-9.84H21.16ZM32.38,0h2.38V-6.84a2.943,2.943,0,0,1,2.2-1.2c1.04,0,1.5.58,1.5,2.18V0h2.36V-6.16c0-2.48-.92-3.92-3.04-3.92a4.64,4.64,0,0,0-3.22,1.56H34.5l-.18-1.32H32.38ZM47.8.24A5.714,5.714,0,0,0,51.2-.8l-.8-1.48a4.125,4.125,0,0,1-2.28.68,2.745,2.745,0,0,1-2.84-2.6h6.2a5.288,5.288,0,0,0,.12-1.2c0-2.76-1.44-4.68-4.1-4.68-2.3,0-4.54,1.96-4.54,5.16C42.96-1.64,45.08.24,47.8.24Zm-2.52-6.2a2.348,2.348,0,0,1,2.28-2.28c1.28,0,1.96.84,1.96,2.28ZM57.88.24A4.888,4.888,0,0,0,61.1-.96l-.96-1.5a3.169,3.169,0,0,1-2.02.78c-1.5,0-2.56-1.28-2.56-3.22,0-1.96,1.08-3.24,2.64-3.24a2.315,2.315,0,0,1,1.62.64l1.14-1.48a4.176,4.176,0,0,0-2.88-1.1A4.88,4.88,0,0,0,53.12-4.9C53.12-1.64,55.2.24,57.88.24Zm8.42,0a4.983,4.983,0,0,0,2.04-.42l-.42-1.66a2.646,2.646,0,0,1-1.02.2c-.92,0-1.38-.56-1.38-1.7V-7.96h2.5V-9.84h-2.5V-12.9H63.56l-.28,3.06-1.52.12v1.76h1.4v4.62C63.16-1.2,64,.24,66.3.24Zm7.64,0A5.714,5.714,0,0,0,77.34-.8l-.8-1.48a4.125,4.125,0,0,1-2.28.68,2.745,2.745,0,0,1-2.84-2.6h6.2a5.288,5.288,0,0,0,.12-1.2c0-2.76-1.44-4.68-4.1-4.68-2.3,0-4.54,1.96-4.54,5.16C69.1-1.64,71.22.24,73.94.24Zm-2.52-6.2A2.348,2.348,0,0,1,73.7-8.24c1.28,0,1.96.84,1.96,2.28ZM83.36.24a4.086,4.086,0,0,0,2.76-1.3h.08L86.38,0H88.3V-14.12H85.94v3.54L86.04-9a3.614,3.614,0,0,0-2.56-1.08c-2.16,0-4.16,1.96-4.16,5.18C79.32-1.66,80.9.24,83.36.24Zm.58-1.96c-1.4,0-2.2-1.1-2.2-3.22,0-2.02,1.02-3.18,2.24-3.18a2.777,2.777,0,0,1,1.96.8V-2.8A2.494,2.494,0,0,1,83.94-1.72Z" transform="translate(-3457.7 3822.208)" fill="#fff"/><path d="M5.5.24c2.44,0,4.68-1.88,4.68-5.14,0-3.28-2.24-5.18-4.68-5.18C3.04-10.08.8-8.18.8-4.9.8-1.64,3.04.24,5.5.24Zm0-1.92c-1.42,0-2.26-1.28-2.26-3.22,0-1.96.84-3.24,2.26-3.24S7.76-6.86,7.76-4.9C7.76-2.96,6.92-1.68,5.5-1.68ZM14.52,0h2.72l3.34-9.84H18.3L16.76-4.78c-.26.98-.56,1.98-.82,2.98h-.08c-.28-1-.56-2-.84-2.98L13.5-9.84H11.1ZM26.34.24A5.714,5.714,0,0,0,29.74-.8l-.8-1.48a4.125,4.125,0,0,1-2.28.68,2.745,2.745,0,0,1-2.84-2.6h6.2a5.288,5.288,0,0,0,.12-1.2c0-2.76-1.44-4.68-4.1-4.68-2.3,0-4.54,1.96-4.54,5.16C21.5-1.64,23.62.24,26.34.24Zm-2.52-6.2A2.348,2.348,0,0,1,26.1-8.24c1.28,0,1.96.84,1.96,2.28ZM32.3,0h2.38V-5.96c.58-1.5,1.52-2.02,2.3-2.02a3.254,3.254,0,0,1,.94.12l.48-2.02a2.806,2.806,0,0,0-1.12-.2,3.414,3.414,0,0,0-2.8,2h-.06l-.18-1.76H32.3ZM47.2.24a4.293,4.293,0,0,0,4.5-4.38,3.7,3.7,0,0,0-4-3.98,3.57,3.57,0,0,0-1.66.4l.28-3H51.1v-2H44.26l-.38,6.28L45-5.72a3.223,3.223,0,0,1,2.02-.7,2.144,2.144,0,0,1,2.3,2.34,2.262,2.262,0,0,1-2.42,2.4,4.256,4.256,0,0,1-2.96-1.36L42.86-1.52A5.839,5.839,0,0,0,47.2.24Zm10.6,0c2.66,0,4.34-2.36,4.34-6.66,0-4.28-1.68-6.54-4.34-6.54-2.64,0-4.34,2.24-4.34,6.54S55.16.24,57.8.24Zm0-1.86c-1.2,0-2.08-1.2-2.08-4.8,0-3.58.88-4.7,2.08-4.7,1.22,0,2.08,1.12,2.08,4.7C59.88-2.82,59.02-1.62,57.8-1.62ZM68.08.24c2.66,0,4.34-2.36,4.34-6.66,0-4.28-1.68-6.54-4.34-6.54-2.64,0-4.34,2.24-4.34,6.54S65.44.24,68.08.24Zm0-1.86c-1.2,0-2.08-1.2-2.08-4.8,0-3.58.88-4.7,2.08-4.7,1.22,0,2.08,1.12,2.08,4.7C70.16-2.82,69.3-1.62,68.08-1.62ZM81.42.24c2.5,0,3.86-1.36,3.86-3.06s-1.34-2.48-2.86-3c-1.24-.42-1.94-.7-1.94-1.42,0-.58.44-1.06,1.42-1.06a3.583,3.583,0,0,1,2.2.76l1.02-1.34a4.967,4.967,0,0,0-3.28-1.2c-2.2,0-3.6,1.24-3.6,2.96,0,1.56,1.32,2.38,2.74,2.9,1.1.4,2.06.72,2.06,1.54,0,.66-.5,1.14-1.54,1.14a4.2,4.2,0,0,1-2.76-1L77.7-1.2A5.479,5.479,0,0,0,81.42.24Zm10,0a4.888,4.888,0,0,0,3.22-1.2l-.96-1.5a3.169,3.169,0,0,1-2.02.78c-1.5,0-2.56-1.28-2.56-3.22,0-1.96,1.08-3.24,2.64-3.24a2.315,2.315,0,0,1,1.62.64L94.5-8.98a4.176,4.176,0,0,0-2.88-1.1A4.88,4.88,0,0,0,86.66-4.9C86.66-1.64,88.74.24,91.42.24ZM96.54,0h2.38V-6.84a2.943,2.943,0,0,1,2.2-1.2c1.04,0,1.5.58,1.5,2.18V0h2.36V-6.16c0-2.48-.92-3.92-3.04-3.92A4.5,4.5,0,0,0,98.82-8.6l.1-1.88v-3.64H96.54Zm15.24.24c2.44,0,4.68-1.88,4.68-5.14,0-3.28-2.24-5.18-4.68-5.18-2.46,0-4.7,1.9-4.7,5.18C107.08-1.64,109.32.24,111.78.24Zm0-1.92c-1.42,0-2.26-1.28-2.26-3.22,0-1.96.84-3.24,2.26-3.24s2.26,1.28,2.26,3.24C114.04-2.96,113.2-1.68,111.78-1.68ZM122.76.24c2.44,0,4.68-1.88,4.68-5.14,0-3.28-2.24-5.18-4.68-5.18-2.46,0-4.7,1.9-4.7,5.18C118.06-1.64,120.3.24,122.76.24Zm0-1.92c-1.42,0-2.26-1.28-2.26-3.22,0-1.96.84-3.24,2.26-3.24s2.26,1.28,2.26,3.24C125.02-2.96,124.18-1.68,122.76-1.68Zm9.2,1.92A2.8,2.8,0,0,0,133.2.02l-.28-1.74a1.234,1.234,0,0,1-.36.04c-.24,0-.5-.2-.5-.78V-14.12h-2.38V-2.58C129.68-.84,130.3.24,131.96.24Zm5.92,0c2.5,0,3.86-1.36,3.86-3.06s-1.34-2.48-2.86-3c-1.24-.42-1.94-.7-1.94-1.42,0-.58.44-1.06,1.42-1.06a3.583,3.583,0,0,1,2.2.76l1.02-1.34a4.967,4.967,0,0,0-3.28-1.2c-2.2,0-3.6,1.24-3.6,2.96,0,1.56,1.32,2.38,2.74,2.9,1.1.4,2.06.72,2.06,1.54,0,.66-.5,1.14-1.54,1.14a4.2,4.2,0,0,1-2.76-1L134.16-1.2A5.479,5.479,0,0,0,137.88.24Z" transform="translate(-3457.7 3840.417)" fill="#fff"/><g transform="translate(-4483 524)"><path d="M.9,0H2.58C4.56,0,5.64-1.22,5.64-3.31S4.56-6.56,2.54-6.56H.9Zm.84-.69V-5.87h.74c1.53,0,2.29.91,2.29,2.56S4.01-.69,2.48-.69ZM8.87.12a2.323,2.323,0,0,0,2.26-2.54A2.33,2.33,0,0,0,8.87-4.98,2.322,2.322,0,0,0,6.62-2.42,2.316,2.316,0,0,0,8.87.12Zm0-.69c-.83,0-1.39-.74-1.39-1.85s.56-1.87,1.39-1.87,1.4.75,1.4,1.87S9.71-.57,8.87-.57ZM14.4,0h.83V-3.52a1.786,1.786,0,0,1,1.21-.74c.62,0,.9.38.9,1.29V0h.83V-3.52a1.763,1.763,0,0,1,1.22-.74c.61,0,.9.38.9,1.29V0h.83V-3.08c0-1.24-.48-1.9-1.48-1.9a2.3,2.3,0,0,0-1.6.92,1.283,1.283,0,0,0-1.35-.92,2.155,2.155,0,0,0-1.51.82h-.03l-.07-.7H14.4ZM24.58.12a2.323,2.323,0,0,0,2.26-2.54,2.33,2.33,0,0,0-2.26-2.56,2.322,2.322,0,0,0-2.25,2.56A2.316,2.316,0,0,0,24.58.12Zm0-.69c-.83,0-1.39-.74-1.39-1.85s.56-1.87,1.39-1.87,1.4.75,1.4,1.87S25.42-.57,24.58-.57ZM28.11,0h.83V-3.12c.33-.82.82-1.11,1.23-1.11a1.418,1.418,0,0,1,.44.06l.18-.71a1.149,1.149,0,0,0-.52-.1,1.688,1.688,0,0,0-1.38,1h-.03l-.07-.88h-.68Zm5.34.12a2.683,2.683,0,0,0,1.61-.5l-.29-.53a2.141,2.141,0,0,1-1.22.36,1.6,1.6,0,0,1-1.6-1.66h3.27a2.56,2.56,0,0,0,.04-.49c0-1.4-.71-2.28-1.95-2.28a2.34,2.34,0,0,0-2.18,2.55A2.315,2.315,0,0,0,33.45.12Zm-1.5-2.97a1.468,1.468,0,0,1,1.38-1.47c.74,0,1.19.51,1.19,1.47ZM39.23,0h1l.65-2.61a10.854,10.854,0,0,0,.31-1.44h.04c.11.57.2.99.32,1.44L42.21,0h1.05l1.31-4.86h-.79l-.71,2.82c-.11.44-.19.86-.29,1.38h-.04c-.1-.52-.21-.94-.32-1.38l-.74-2.82h-.89l-.73,2.82c-.11.44-.2.86-.3,1.38h-.04c-.08-.52-.18-.94-.29-1.38l-.71-2.82h-.85Zm6.4,0h.83V-4.86h-.83Zm.42-5.86a.517.517,0,0,0,.55-.54.522.522,0,0,0-.55-.54.522.522,0,0,0-.55.54A.517.517,0,0,0,46.05-5.86ZM49.63.12a2.262,2.262,0,0,0,.92-.21l-.17-.59a1.317,1.317,0,0,1-.56.12c-.55,0-.75-.34-.75-.93v-2.7h1.32v-.67H49.07V-6.42h-.69l-.1,1.56-.76.05v.62h.72v2.68C48.24-.54,48.59.12,49.63.12ZM51.49,0h.83V-3.52a1.826,1.826,0,0,1,1.32-.74c.64,0,.92.38.92,1.29V0h.83V-3.08c0-1.24-.46-1.9-1.49-1.9a2.282,2.282,0,0,0-1.61.8l.03-1V-7.12h-.83Zm8.68,0h.97l2.13-6.56h-.86L61.32-3.02c-.23.77-.39,1.4-.63,2.16h-.04c-.24-.76-.41-1.39-.63-2.16L59-6.56h-.89ZM66.4.12c1.34,0,2.36-.73,2.36-2.83V-6.56h-.81v3.87c0,1.57-.68,2.07-1.55,2.07s-1.52-.5-1.52-2.07V-6.56h-.84v3.85C64.04-.61,65.06.12,66.4.12ZM70.52,0h.77V-3.62c0-.58-.07-1.39-.12-1.96h.04l.52,1.53L72.95-.66h.61l1.23-3.39.51-1.53h.04c-.05.57-.12,1.38-.12,1.96V0h.79V-6.56H74.96L73.72-3.05c-.16.46-.28.88-.43,1.37h-.04c-.14-.49-.28-.91-.44-1.37L71.57-6.56H70.52Zm8.42-3.66c.23-.73.44-1.45.64-2.21h.04c.21.76.42,1.48.66,2.21l.31.99H78.63ZM76.93,0h.85l.63-1.99H80.8L81.42,0h.89L80.1-6.56h-.96ZM85.3,0h.83V-4.19h1.02v-.67H86.13v-.76c0-.62.22-.95.68-.95a1.823,1.823,0,0,1,.54.1l.18-.61a2.12,2.12,0,0,0-.81-.16c-.97,0-1.42.63-1.42,1.62v.76l-.66.05v.62h.66Zm2.78,0h.83V-4.86h-.83Zm.42-5.86a.517.517,0,0,0,.55-.54.522.522,0,0,0-.55-.54.522.522,0,0,0-.55.54A.517.517,0,0,0,88.5-5.86ZM92.7.12c1.11,0,2.11-.97,2.11-2.63,0-1.5-.68-2.47-1.93-2.47a2.49,2.49,0,0,0-1.53.67l.03-.87V-7.12h-.83V0h.66l.08-.5h.03A2.155,2.155,0,0,0,92.7.12Zm-.14-.7a1.839,1.839,0,0,1-1.18-.5V-3.62a1.938,1.938,0,0,1,1.29-.66c.91,0,1.28.71,1.28,1.78C93.95-1.3,93.36-.58,92.56-.58ZM96.09,0h.83V-3.12c.33-.82.82-1.11,1.23-1.11a1.418,1.418,0,0,1,.44.06l.18-.71a1.149,1.149,0,0,0-.52-.1,1.688,1.688,0,0,0-1.38,1h-.03l-.07-.88h-.68Zm5.34.12a2.683,2.683,0,0,0,1.61-.5l-.29-.53a2.141,2.141,0,0,1-1.22.36,1.6,1.6,0,0,1-1.6-1.66h3.27a2.56,2.56,0,0,0,.04-.49c0-1.4-.71-2.28-1.95-2.28a2.34,2.34,0,0,0-2.18,2.55A2.315,2.315,0,0,0,101.43.12Zm-1.5-2.97a1.468,1.468,0,0,1,1.38-1.47c.74,0,1.19.51,1.19,1.47Z" transform="translate(1030.919 3355)" fill="#fff"/><g transform="translate(1025 3342)" fill="none" stroke="#fff" stroke-width="1"><rect width="116" height="19" rx="9.5" stroke="none"/><rect x="0.5" y="0.5" width="115" height="18" rx="9" fill="none"/></g></g><g transform="translate(-3470 3797.672)"><g transform="translate(0 0)" clip-path="url(#a)"><path d="M0,.181V2.01a.18.18,0,0,0,.093.157L5.814,5.336a.353.353,0,0,1,.206.344.387.387,0,0,1-.206.35L.093,9.2A.18.18,0,0,0,0,9.357v1.828a.183.183,0,0,0,.272.157L6.781,7.732A2.171,2.171,0,0,0,7.7,6.843a2.374,2.374,0,0,0,0-2.307,2.256,2.256,0,0,0-.918-.9L.272.023A.183.183,0,0,0,0,.181" transform="translate(0 0)" fill="#fff"/></g></g></g></svg>